<?xml version="1.0" standalone="no"?>
<!DOCTYPE svg PUBLIC "-//W3C//DTD SVG 20010904//EN"
 "http://www.w3.org/TR/2001/REC-SVG-20010904/DTD/svg10.dtd">
<svg version="1.0" xmlns="http://www.w3.org/2000/svg"
 width="320.000000pt" height="320.000000pt" viewBox="0 0 320.000000 320.000000"
 preserveAspectRatio="xMidYMid meet">
<metadata>
Created by potrace 1.11, written by Peter Selinger 2001-2013
</metadata>
<g transform="translate(0.000000,320.000000) scale(0.100000,-0.100000)"
fill="#000000" stroke="none">
<path d="M2166 3184 c-130 -21 -242 -68 -291 -124 -17 -19 -20 -35 -18 -109 1
-94 6 -131 23 -206 12 -55 77 -199 110 -245 12 -17 18 -35 14 -42 -8 -13 -11
-16 -45 -58 -80 -97 -146 -250 -196 -455 -4 -16 -8 -412 -10 -878 -4 -846 -4
-848 17 -885 28 -49 151 -123 230 -136 14 -3 26 -5 28 -7 1 -1 7 -3 12 -4 6
-1 11 -3 13 -5 1 -1 11 -3 22 -5 11 -1 45 -7 75 -11 105 -17 380 -10 468 11
12 3 32 7 44 10 114 25 225 86 266 146 l23 33 -4 851 c-2 467 -7 866 -11 885
-5 19 -9 40 -10 45 -1 6 -4 15 -7 20 -4 6 -10 27 -13 49 -14 74 -94 236 -164
333 l-53 73 28 42 c26 38 77 135 78 148 0 3 8 30 17 60 31 105 36 130 27 130
-5 0 -5 10 0 23 4 12 9 53 10 91 l2 68 -44 42 c-46 45 -145 89 -228 101 -52 8
-74 13 -74 15 0 9 -278 4 -339 -6z"/>
<path d="M797 1244 c-1 -1 -31 -5 -67 -9 -163 -18 -326 -90 -367 -162 -9 -16
-12 -130 -13 -427 l0 -406 42 -58 c50 -66 60 -75 110 -102 61 -33 143 -57 218
-64 9 -1 20 -5 25 -8 6 -3 80 -5 165 -4 178 2 296 26 389 78 60 33 67 39 96
82 59 85 55 47 55 479 0 446 1 440 -70 490 -21 15 -69 39 -107 53 -72 27 -72
27 -143 39 -25 4 -54 9 -65 12 -20 5 -263 11 -268 7z"/>
</g>
</svg>
